Format : AVI
Format/Info : Audio Video Interleave
File size : 636 MiB
Duration : 3h 5mn
Overall bit rate : 479 Kbps
Writing application : MEncoder SVN-r29352(20090610-gcc4.3.3)
Writing library : MPlayer

Video
ID : 0
Format : MPEG-4 Visual
Format profile : AdvancedSimple@L5
Format settings, BVOP : Yes
Format settings, QPel : No
Format settings, GMC : No warppoints
Format settings, Matrix : Default (H.263)
Codec ID : XVID
Codec ID/Hint : XviD
Duration : 1h 32mn
Bit rate : 849 Kbps
Width : 640 pixels
Height : 360 pixels
Display aspect ratio : 16:9
Frame rate : 25.000 fps
Resolution : 24 bits
Colorimetry : 4:2:0
Scan type : Progressive
Bits/(Pixel*Frame) : 0.147
Stream size : 564 MiB (89%)
Writing library : XviD 1.2.1 (UTC 2008-12-04)

Audio
ID : 1
Format : MPEG Audio
Format version : Version 2
Format profile : Layer 3
Codec ID : 55
Codec ID/Hint : MP3
Duration : 3h 5mn
Bit rate mode : Constant
Bit rate : 96.0 Kbps
Channel(s) : 2 channels
Sampling rate : 22.05 KHz
Resolution : 16 bits
Video delay : 40ms
Stream size : 63.7 MiB (10%)
Alignment : Aligned on interleaves
Interleave, duration : 26 ms (0.65 video frame)
Interleave, preload duration : 522 ms
Writing library : LAME3.98

Once Fallen follows Liam (Ed Harris) and his son Chance (Brian Presley) battling over issues of loyalty and family, after they leave behind their gritty lives in prison. Grappling with clashing ideologies, the two men struggle to assert themselves while still trying to keep their family alive.
 
http://www.imdb.com/title/tt1087524/

screens 
 
http://img574.imageshack.us/img574/6208/oncefallenxvidviceavisn.jpg 
http://img101.imageshack.us/img101/6208/oncefallenxvidviceavisn.jpg 
http://img512.imageshack.us/img512/6208/oncefallenxvidviceavisn.jpg 
http://img826.imageshack.us/img826/6208/oncefallenxvidviceavisn.jpg